HIERARCHY
ROOT wineglass3
{
	OFFSET 0.000000 0.000000 0.000000
	CHANNELS 6 Xposition Yposition Zposition Yrotation Xrotation Zrotation
	End Site
	{
		OFFSET 0.000000 0.000000 0.000000
	}
}
MOTION
Frames: 153
Frame Time: 0.008333334
1.701172 6.123716 3.077382 86.061570 -3.136230 5.001449 
1.709956 6.058876 3.046860 86.530750 -2.576477 2.858563 
1.718149 5.993660 3.017395 87.083310 -1.958588 0.878494 
1.726135 5.928749 2.989328 87.498050 -1.256317 -1.219177 
1.732908 5.863464 2.962674 87.946300 -0.570679 -3.044220 
1.740688 5.798726 2.937679 88.300920 0.146625 -4.789185 
1.747632 5.734876 2.915665 88.401820 0.898629 -6.285919 
1.753578 5.671131 2.896249 88.565770 1.524363 -7.886414 
1.758435 5.608531 2.879546 88.661540 2.182607 -9.231079 
1.761450 5.547285 2.864849 88.978080 2.637621 -10.310610 
1.763190 5.488265 2.852306 89.265850 3.295880 -11.399840 
1.762471 5.430885 2.842444 89.662690 3.698025 -12.207920 
1.760244 5.376722 2.833612 90.057700 4.136998 -13.066650 
1.756480 5.323502 2.828311 90.687310 4.435245 -13.655240 
1.751467 5.273519 2.825983 91.056300 4.630962 -14.116300 
1.745220 5.226029 2.826197 91.550360 4.816849 -14.276210 
1.738659 5.181685 2.829450 91.820460 4.909953 -14.387120 
1.731941 5.138909 2.833269 91.969020 4.859085 -14.446500 
1.725058 5.099140 2.837725 92.112240 4.752027 -14.540860 
1.718456 5.061923 2.840618 92.231820 4.680149 -14.908690 
1.712200 5.027221 2.840362 92.302400 4.665016 -15.509490 
1.705617 4.996928 2.837710 92.529830 4.594829 -16.093960 
1.701676 4.970377 2.834076 92.735640 4.648077 -16.755740 
1.696984 4.948375 2.830687 92.882870 4.904898 -17.374820 
1.693233 4.929482 2.828668 92.969210 5.217253 -18.026430 
1.689611 4.914406 2.827180 93.175060 5.398260 -18.572200 
1.684240 4.901941 2.826951 93.317320 5.419120 -18.909180 
1.677293 4.892560 2.828382 93.667370 5.433592 -19.237760 
1.668698 4.884987 2.830574 93.941470 5.177873 -19.295990 
1.656935 4.879103 2.833848 94.211430 4.858175 -19.433560 
1.644213 4.874178 2.837837 94.515800 4.381711 -19.428250 
1.628958 4.869494 2.843021 94.953700 3.726539 -19.085570 
1.615538 4.865697 2.848976 95.061080 3.270142 -18.468440 
1.612630 4.866628 2.855675 94.963040 3.090003 -17.715030 
1.615748 4.869173 2.862572 94.861720 3.178979 -16.732360 
1.617862 4.874156 2.871015 94.750600 3.471012 -15.575440 
1.619081 4.880004 2.880333 94.682200 3.696594 -14.466920 
1.619704 4.884652 2.891692 94.694580 3.895357 -13.125580 
1.616774 4.889772 2.904366 94.733070 3.843447 -12.060910 
1.612773 4.894915 2.918672 95.047070 3.693538 -10.711460 
1.609544 4.901226 2.933330 95.179190 3.654550 -9.309967 
1.607469 4.908559 2.946485 95.261890 3.587672 -8.030029 
1.606679 4.914874 2.951279 95.358070 3.735147 -7.139618 
1.605577 4.919669 2.946434 95.608680 3.900801 -7.087799 
1.603051 4.923662 2.937851 95.722370 3.941009 -7.407257 
1.599999 4.925935 2.927983 95.702870 4.106542 -7.906311 
1.597041 4.928044 2.918357 95.771290 4.237056 -8.281067 
1.593727 4.930303 2.910483 95.717210 4.169278 -8.721741 
1.592137 4.931457 2.904196 95.527810 4.220964 -8.936676 
1.591054 4.932798 2.898845 95.213400 4.310433 -9.238495 
1.591590 4.933528 2.895034 94.828470 4.341089 -9.614685 
1.592987 4.934162 2.891301 94.306620 4.472702 -9.762085 
1.595008 4.934774 2.887724 93.869810 4.588822 -9.867920 
1.594241 4.937175 2.884502 93.446210 4.804588 -10.077880 
1.592051 4.940460 2.881667 93.158150 4.830123 -10.317570 
1.588034 4.944698 2.878352 92.938710 4.628850 -9.958710 
1.583773 4.949677 2.874835 92.584990 4.411137 -9.847046 
1.581502 4.954419 2.871460 91.911740 4.373166 -9.978943 
1.584164 4.956106 2.869973 90.904230 4.173057 -9.910767 
1.592202 4.957372 2.870648 89.091350 4.365860 -10.218380 
1.606579 4.955756 2.871341 87.021610 4.545017 -10.053620 
1.624930 4.954188 2.874414 84.569260 4.849266 -10.455600 
1.644358 4.950865 2.878467 81.915500 5.194890 -10.887300 
1.661585 4.947306 2.883575 79.699630 5.312973 -11.409060 
1.675043 4.943151 2.888141 77.819340 5.302366 -11.952610 
1.684754 4.940674 2.893456 76.386420 5.188331 -12.356290 
1.692975 4.939426 2.898630 75.141360 5.206963 -12.679140 
1.700443 4.940254 2.904973 74.000950 5.251066 -12.575410 
1.707418 4.942137 2.912110 73.013510 5.348326 -11.934970 
1.713188 4.944902 2.919037 72.225990 5.378066 -11.423680 
1.716884 4.947790 2.924430 71.437260 5.640869 -10.500820 
1.720132 4.950068 2.929480 70.941030 5.697632 -9.786224 
1.720010 4.952785 2.931515 70.503570 5.859310 -9.063110 
1.719240 4.954879 2.931574 70.134220 5.915091 -8.353638 
1.718038 4.955779 2.929292 69.810980 5.977303 -7.993896 
1.714866 4.955036 2.924562 69.249950 5.980338 -8.043427 
1.713253 4.953497 2.920568 68.508450 5.470401 -8.312653 
1.711793 4.951848 2.914938 67.453590 4.919701 -8.966370 
1.711665 4.948970 2.907140 66.073620 4.224075 -9.807617 
1.712441 4.945939 2.898572 64.318670 3.527733 -10.782320 
1.711860 4.944144 2.889278 62.596710 2.564378 -11.623200 
1.709988 4.944067 2.880853 61.122030 1.483607 -12.277070 
1.706588 4.946004 2.873497 59.746070 0.721856 -12.838320 
1.700729 4.948101 2.866213 58.457380 -0.198151 -13.200810 
1.694664 4.948707 2.857227 57.351490 -1.160126 -13.455380 
1.687215 4.947402 2.847061 56.284110 -2.162262 -13.658080 
1.679057 4.944388 2.835617 55.034870 -3.485260 -13.882050 
1.670940 4.939698 2.821847 53.632870 -4.726746 -13.842740 
1.663265 4.932701 2.808122 52.126350 -5.952606 -13.960210 
1.655334 4.926779 2.793908 50.501460 -7.315094 -13.978760 
1.646118 4.919068 2.779466 48.665700 -8.561707 -14.027220 
1.636738 4.910030 2.765579 46.848680 -10.000430 -13.892940 
1.626541 4.901738 2.751055 45.001990 -11.528990 -13.953220 
1.614994 4.893281 2.739187 43.365070 -13.011900 -13.628020 
1.604146 4.883767 2.727178 41.841130 -14.616970 -13.368010 
1.592522 4.874228 2.715948 40.474480 -16.120480 -12.976010 
1.581593 4.865681 2.704947 39.137840 -17.419280 -12.824860 
1.571725 4.857321 2.694541 38.062780 -18.598080 -12.506560 
1.564003 4.849991 2.685243 37.219430 -19.460570 -12.392490 
1.558949 4.843303 2.676803 36.667480 -20.188570 -12.408200 
1.555557 4.836889 2.669657 36.436340 -20.870360 -12.463380 
1.553743 4.830923 2.663867 36.393810 -21.198730 -12.738070 
1.553493 4.824999 2.659758 36.462740 -21.433530 -12.960390 
1.555150 4.820025 2.655576 36.573730 -21.544620 -13.284790 
1.557283 4.814877 2.653519 36.869520 -21.597200 -13.665440 
1.558592 4.811586 2.651448 37.097390 -21.557460 -13.877380 
1.558475 4.808136 2.652802 37.771880 -21.463320 -14.047490 
1.557599 4.806046 2.656188 38.805890 -21.087190 -14.446500 
1.553244 4.805659 2.661200 39.831900 -20.858180 -14.542660 
1.545692 4.806059 2.668009 40.602190 -20.681580 -14.169710 
1.535339 4.806443 2.676587 40.965330 -20.431000 -13.814910 
1.524595 4.806823 2.684977 40.766240 -20.319700 -13.166900 
1.517678 4.806262 2.692386 39.856050 -20.207860 -12.476720 
1.518582 4.806224 2.698791 38.812080 -20.120300 -12.131650 
1.522481 4.805175 2.705483 37.908820 -19.755830 -11.923190 
1.528673 4.802737 2.711424 37.043560 -19.416110 -12.142790 
1.537095 4.799155 2.717541 36.510800 -19.164370 -12.326110 
1.545307 4.794577 2.721602 35.693010 -18.777770 -12.436370 
1.553863 4.788634 2.724607 35.280320 -18.634950 -12.872440 
1.560241 4.782901 2.725553 34.849390 -18.464450 -13.255950 
1.565058 4.775443 2.723439 34.708010 -18.513430 -13.754300 
1.568158 4.767197 2.716433 34.968200 -18.656280 -14.342160 
1.569751 4.758684 2.708752 35.685690 -18.776210 -14.882320 
1.568410 4.751786 2.701543 36.185760 -19.059450 -15.151550 
1.563968 4.748203 2.695667 36.509160 -19.222690 -15.220700 
1.557462 4.747115 2.692827 36.502490 -19.392030 -14.928010 
1.548805 4.747961 2.690164 36.419800 -19.625520 -14.596070 
1.540937 4.749467 2.689060 36.356850 -19.748960 -14.211090 
1.535578 4.749838 2.688685 36.068690 -19.963200 -13.934750 
1.533408 4.748625 2.688803 35.564810 -19.902770 -13.799010 
1.533539 4.747048 2.688391 34.947170 -19.849460 -13.924320 
1.535790 4.743306 2.685430 34.244770 -19.727660 -14.247920 
1.539852 4.737440 2.680128 33.435680 -19.994540 -14.505340 
1.542668 4.731032 2.672994 32.548290 -20.407840 -14.785920 
1.545618 4.723817 2.665245 31.584110 -21.105560 -15.018190 
1.546400 4.719159 2.658151 30.709210 -21.599760 -15.282320 
1.547791 4.716650 2.652564 29.962520 -22.253110 -15.326870 
1.547170 4.716459 2.648126 29.180780 -22.854130 -15.117370 
1.544853 4.718486 2.645564 28.378770 -23.583920 -14.744840 
1.540803 4.722011 2.644192 27.436210 -24.147160 -14.222930 
1.535752 4.725823 2.644390 26.705810 -24.639590 -13.638640 
1.532039 4.729703 2.645083 26.037650 -25.108030 -13.170620 
1.528112 4.732762 2.646907 25.375730 -25.494230 -12.647060 
1.526664 4.735978 2.649580 24.609260 -25.959990 -11.808170 
1.526807 4.740353 2.651292 23.634510 -26.051540 -11.139830 
1.526856 4.745860 2.653612 22.541760 -25.895840 -10.553960 
1.527384 4.751596 2.657591 21.490900 -25.847900 -9.751648 
1.528832 4.758969 2.662046 20.361320 -25.413480 -9.096802 
1.530941 4.766194 2.666438 19.101170 -25.008580 -8.568390 
1.534516 4.772973 2.671678 17.709500 -24.581050 -8.088593 
1.539062 4.779559 2.676367 16.036700 -24.234830 -7.698273 
1.544423 4.783921 2.680960 14.342620 -24.054200 -7.501160 
1.548551 4.786075 2.684683 12.534420 -24.354680 -7.172394 
